<?xml version="1.0" standalone="no"?>
<!DOCTYPE svg PUBLIC "-//W3C//DTD SVG 20010904//EN"
 "http://www.w3.org/TR/2001/REC-SVG-20010904/DTD/svg10.dtd">
<svg version="1.0" xmlns="http://www.w3.org/2000/svg"
 width="121.000000pt" height="73.000000pt" viewBox="0 0 121.000000 73.000000"
 preserveAspectRatio="xMidYMid meet">

<g transform="translate(0.000000,73.000000) scale(0.100000,-0.100000)"
fill='white' stroke="none">
<path d="M868 610 l-114 -121 -36 33 c-51 47 -127 85 -138 69 -4 -8 -10 -9
-13 -4 -4 5 -68 10 -144 11 -161 1 -277 -19 -269 -47 29 -101 30 -102 48 -98
40 11 12 -11 -92 -73 l-110 -65 6 -75 c8 -99 20 -143 44 -165 18 -17 35 -17
222 -11 235 8 278 13 278 32 0 8 3 14 6 14 4 0 53 -25 109 -55 57 -30 106 -55
110 -55 11 0 -5 131 -21 169 -21 51 -19 65 9 47 35 -22 126 -48 143 -42 9 3
14 13 11 20 -3 8 1 20 8 26 8 7 13 17 12 23 -2 9 193 93 255 110 15 4 13 14
-17 87 -19 45 -35 83 -35 86 0 2 17 11 38 20 l37 16 -70 64 c-38 36 -81 71
-95 78 -62 33 -60 35 -182 -94z m190 41 l64 -59 -44 -16 c-168 -62 -207 -73
-220 -60 -11 10 -21 6 -58 -26 -25 -21 -43 -40 -40 -43 3 -2 70 20 150 49 79
29 145 52 146 51 1 -1 18 -35 38 -75 l36 -72 -22 -9 c-157 -61 -216 -86 -229
-102 -15 -17 -18 -15 -42 42 l-26 59 60 41 c34 22 58 43 56 46 -5 4 -142 -33
-159 -44 -4 -2 15 -49 43 -105 28 -55 45 -98 37 -96 -7 3 -38 13 -68 23 -51
16 -57 21 -75 64 -11 25 -22 77 -25 116 -5 62 -7 70 -28 75 -15 3 -29 18 -38
38 l-14 33 53 -29 c28 -17 62 -44 74 -61 l21 -31 118 125 c65 69 120 125 123
125 3 -1 35 -27 69 -59z m-675 -70 c15 -6 31 -25 41 -51 9 -24 16 -43 14 -45
-2 -1 -30 -15 -63 -32 -152 -77 -180 -101 -102 -89 23 4 60 10 82 13 l41 5 13
-50 c11 -45 17 -52 48 -63 27 -9 37 -9 43 1 17 28 20 -13 5 -68 l-17 -59 -111
-6 c-61 -4 -112 -5 -114 -3 -2 2 4 20 13 40 22 44 15 52 -25 32 -27 -14 -30
-14 -25 -1 4 8 3 15 0 15 -4 0 -11 -12 -17 -27 -8 -18 -13 -23 -16 -14 -6 14
-43 55 -43 47 0 -3 5 -17 11 -33 16 -39 19 -73 7 -73 -6 0 -8 7 -4 15 3 8 -4
21 -17 30 -20 14 -23 13 -52 -15 -34 -33 -65 -39 -66 -12 0 9 -4 50 -8 91 l-7
74 60 39 c34 22 108 62 164 90 66 32 100 54 94 60 -6 6 -23 1 -46 -13 -20 -12
-40 -19 -43 -15 -4 3 -1 6 5 6 7 0 12 4 12 10 0 6 -9 6 -26 0 -37 -14 -41 -13
-48 18 -4 15 -9 35 -12 44 -5 16 0 18 121 42 37 7 63 6 88 -3z m177 -141 c13
-77 27 -140 31 -140 5 0 9 40 9 90 0 88 1 90 25 96 14 4 28 4 30 2 3 -2 9 -58
15 -124 6 -65 17 -137 24 -159 16 -45 29 -135 20 -135 -4 0 -38 17 -75 37 -55
30 -71 44 -78 68 -4 16 -18 69 -31 118 -13 48 -27 87 -32 87 -4 0 -8 -22 -8
-50 0 -52 -11 -62 -42 -38 -12 10 -58 131 -58 153 0 2 16 9 35 15 19 6 35 13
35 15 0 1 -7 22 -15 46 -9 23 -12 46 -8 50 8 7 82 17 94 12 3 -1 16 -66 29
-143z m-301 -274 c-21 -36 -49 -49 -49 -22 0 15 59 70 67 63 2 -3 -6 -21 -18
-41z m-119 -22 c0 -8 -9 -14 -20 -14 -18 0 -19 3 -10 20 12 22 30 18 30 -6z"/>
<path d="M58 193 c7 -12 17 -25 24 -29 7 -4 8 -3 4 4 -4 7 0 13 11 14 10 0 23
2 30 2 6 1 15 5 20 10 4 5 -9 6 -30 2 -26 -5 -44 -3 -54 6 -15 12 -15 11 -5
-9z"/>
</g>
</svg>
